<?xml version="1.0" encoding="UTF-8"?>
<svg xmlns="http://www.w3.org/2000/svg" width="512" height="512" viewBox="0 0 512 512">
  <rect width="100%" height="100%" fill="#000"/>
  <polyline points="0.0,256.0 2.0,257.6 4.0,259.3 6.0,261.3 8.0,263.4 10.0,265.5 12.0,267.7 14.0,269.8 16.0,271.8 18.0,273.5 20.0,275.0 22.0,276.1 24.0,276.8 26.0,277.0 28.0,276.6 30.0,275.7 32.0,274.1 34.0,272.0 36.0,269.2 38.0,265.8 40.0,261.9 42.0,257.5 44.0,252.8 46.0,247.8 48.0,242.6 50.0,237.4 52.0,232.4 54.0,227.5 56.0,223.1 58.0,219.2 60.0,216.0 62.0,213.6 64.0,212.0 66.0,211.4 68.0,211.9 70.0,213.4 72.0,216.0 74.0,219.6 76.0,224.3 78.0,229.8 80.0,236.2 82.0,243.2 84.0,250.8 86.0,258.7 88.0,266.7 90.0,274.8 92.0,282.6 94.0,289.9 96.0,296.7 98.0,302.6 100.0,307.6 102.0,311.5 104.0,314.1 106.0,315.5 108.0,315.6 110.0,314.3 112.0,311.7 114.0,307.8 116.0,302.8 118.0,296.6 120.0,289.6 122.0,281.8 124.0,273.5 126.0,264.8 128.0,256.0 130.0,247.3 132.0,238.8 134.0,230.9 136.0,223.6 138.0,217.1 140.0,211.7 142.0,207.3 144.0,204.1 146.0,202.2 148.0,201.5 150.0,202.1 152.0,203.8 154.0,206.7 156.0,210.6 158.0,215.4 160.0,220.9 162.0,227.0 164.0,233.5 166.0,240.3 168.0,247.1 170.0,253.8 172.0,260.3 174.0,266.3 176.0,271.8 178.0,276.6 180.0,280.7 182.0,284.0 184.0,286.4 186.0,288.0 188.0,288.8 190.0,288.7 192.0,287.9 194.0,286.4 196.0,284.3 198.0,281.7 200.0,278.7 202.0,275.4 204.0,271.9 206.0,268.4 208.0,264.8 210.0,261.3 212.0,258.1 214.0,255.0 216.0,252.3 218.0,249.9 220.0,247.9 222.0,246.2 224.0,245.0 226.0,244.1 228.0,243.6 230.0,243.4 232.0,243.5 234.0,243.8 236.0,244.4 238.0,245.2 240.0,246.1 242.0,247.2 244.0,248.3 246.0,249.5 248.0,250.8 250.0,252.0 252.0,253.4 254.0,254.7 256.0,256.0 258.0,257.3 260.0,258.6 262.0,260.0 264.0,261.2 266.0,262.5 268.0,263.7 270.0,264.8 272.0,265.9 274.0,266.8 276.0,267.6 278.0,268.2 280.0,268.5 282.0,268.6 284.0,268.4 286.0,267.9 288.0,267.0 290.0,265.8 292.0,264.1 294.0,262.1 296.0,259.7 298.0,257.0 300.0,253.9 302.0,250.7 304.0,247.2 306.0,243.6 308.0,240.1 310.0,236.6 312.0,233.3 314.0,230.3 316.0,227.7 318.0,225.6 320.0,224.1 322.0,223.3 324.0,223.2 326.0,224.0 328.0,225.6 330.0,228.0 332.0,231.3 334.0,235.4 336.0,240.2 338.0,245.7 340.0,251.7 342.0,258.2 344.0,264.9 346.0,271.7 348.0,278.5 350.0,285.0 352.0,291.1 354.0,296.6 356.0,301.4 358.0,305.3 360.0,308.2 362.0,309.9 364.0,310.5 366.0,309.8 368.0,307.9 370.0,304.7 372.0,300.3 374.0,294.9 376.0,288.4 378.0,281.1 380.0,273.2 382.0,264.7 384.0,256.0 386.0,247.2 388.0,238.5 390.0,230.2 392.0,222.4 394.0,215.4 396.0,209.2 398.0,204.2 400.0,200.3 402.0,197.7 404.0,196.4 406.0,196.5 408.0,197.9 410.0,200.5 412.0,204.4 414.0,209.4 416.0,215.3 418.0,222.1 420.0,229.4 422.0,237.2 424.0,245.3 426.0,253.3 428.0,261.2 430.0,268.8 432.0,275.8 434.0,282.2 436.0,287.7 438.0,292.4 440.0,296.0 442.0,298.6 444.0,300.1 446.0,300.6 448.0,300.0 450.0,298.4 452.0,296.0 454.0,292.8 456.0,288.9 458.0,284.5 460.0,279.6 462.0,274.6 464.0,269.4 466.0,264.2 468.0,259.2 470.0,254.5 472.0,250.1 474.0,246.2 476.0,242.8 478.0,240.0 480.0,237.9 482.0,236.3 484.0,235.4 486.0,235.0 488.0,235.2 490.0,235.9 492.0,237.0 494.0,238.5 496.0,240.2 498.0,242.2 500.0,244.3 502.0,246.5 504.0,248.6 506.0,250.7 508.0,252.7 510.0,254.4 512.0,256.0" fill="none" stroke="#fff" stroke-width="8" stroke-linecap="round" stroke-linejoin="round"/>
</svg>
